<!-- Generator: Adobe Illustrator 24.2.1, SVG Export Plug-In  -->
<svg version="1.1" xmlns="http://www.w3.org/2000/svg" xmlns:xlink="http://www.w3.org/1999/xlink" x="0px" y="0px" width="534px"
	 height="534px" viewBox="0 0 534 534" overflow="visible" enable-background="new 0 0 534 534" xml:space="preserve">
<defs>
</defs>
<g>
	<g>
		<path fill="#FFFFFF" d="M267,524.5c-68.797,0-133.465-26.78-182.093-75.407C36.281,400.465,9.5,335.797,9.5,267
			s26.78-133.465,75.407-182.093C133.536,36.28,198.204,9.5,267,9.5s133.465,26.78,182.093,75.407
			C497.72,133.535,524.5,198.203,524.5,267s-26.78,133.465-75.407,182.093C400.465,497.719,335.797,524.5,267,524.5z
			 M145.625,253.873c-1.736,0-3.369,0.676-4.598,1.904l-22.619,22.629c-2.531,2.533-2.53,6.655,0.001,9.189l103.998,103.997
			c1.225,1.225,2.856,1.9,4.592,1.9c1.736,0,3.368-0.676,4.596-1.902l183.997-183.998c2.529-2.531,2.53-6.653-0.002-9.187
			l-22.639-22.649c-1.226-1.215-2.85-1.884-4.576-1.884c-1.736,0-3.369,0.676-4.598,1.904L227,332.554l-76.807-76.805
			C148.97,254.539,147.349,253.873,145.625,253.873z"/>
		<path fill="#FBFBFB" d="M267,19c137,0,248,111,248,248S404,515,267,515S19,404,19,267S130,19,267,19 M227,319.12l-70.06-70.06
			c-0.001-0.001-0.002-0.002-0.002-0.003c-3.124-3.124-7.218-4.685-11.313-4.685c-4.095,0-8.191,1.563-11.315,4.688l-22.62,22.63
			c-6.244,6.247-6.244,16.372,0,22.62l104,104c3.124,3.122,7.217,4.682,11.31,4.682c4.093,0,8.186-1.561,11.31-4.682l184-184
			c6.243-6.248,6.243-16.372,0-22.62l-22.62-22.63c-0.001-0.001-0.002-0.002-0.002-0.003c-3.124-3.123-7.218-4.685-11.313-4.685
			c-4.095,0-8.191,1.563-11.315,4.688L227,319.12 M267,0c-36.044,0-71.017,7.06-103.947,20.985
			C131.255,34.431,102.702,53.677,78.19,78.19c-24.512,24.512-43.759,53.065-57.205,84.863C7.06,195.983,0,230.955,0,267
			s7.06,71.017,20.984,103.947c13.446,31.799,32.693,60.351,57.205,84.863s53.065,43.759,84.863,57.205
			C195.983,526.94,230.956,534,267,534s71.017-7.06,103.947-20.984c31.799-13.446,60.351-32.693,84.863-57.205
			s43.759-53.065,57.205-84.863C526.94,338.017,534,303.045,534,267s-7.06-71.017-20.985-103.947
			c-13.446-31.799-32.693-60.351-57.205-84.863c-24.512-24.513-53.065-43.759-84.863-57.205C338.017,7.06,303.044,0,267,0L267,0z
			 M227,345.99l13.435-13.435l147.939-147.94L406.751,203L227,382.75L127.25,283l18.376-18.384l67.939,67.939L227,345.99L227,345.99
			z"/>
	</g>
	<path fill="#010202" d="M238.31,398.31c-6.248,6.243-16.372,6.243-22.62,0l-104-104c-6.243-6.248-6.243-16.372,0-22.62l22.62-22.63
		c6.248-6.249,16.378-6.25,22.627-0.003c0.001,0.001,0.002,0.002,0.003,0.003L227,319.12l150.06-150.06
		c6.248-6.249,16.378-6.25,22.627-0.003c0.001,0.001,0.002,0.002,0.003,0.003l22.62,22.63c6.243,6.248,6.243,16.372,0,22.62
		L238.31,398.31z"/>
</g>
</svg>
